<svg xmlns="http://www.w3.org/2000/svg" xmlns:xlink="http://www.w3.org/1999/xlink" width="300" zoomAndPan="magnify" viewBox="0 0 224.87999 74.999997" height="100" preserveAspectRatio="xMidYMid meet" version="1.0"><defs><g/></defs><g fill="#000000" fill-opacity="1"><g transform="translate(17.9292, 55.857482)"><g><path d="M 21.796875 -20.25 C 21.597656 -19.988281 21.394531 -19.785156 21.1875 -19.640625 C 20.988281 -19.492188 20.703125 -19.421875 20.328125 -19.421875 C 19.992188 -19.421875 19.671875 -19.515625 19.359375 -19.703125 C 19.046875 -19.898438 18.6875 -20.113281 18.28125 -20.34375 C 17.875 -20.570312 17.394531 -20.78125 16.84375 -20.96875 C 16.289062 -21.164062 15.597656 -21.265625 14.765625 -21.265625 C 13.722656 -21.265625 12.816406 -21.070312 12.046875 -20.6875 C 11.285156 -20.3125 10.648438 -19.769531 10.140625 -19.0625 C 9.628906 -18.351562 9.253906 -17.492188 9.015625 -16.484375 C 8.773438 -15.472656 8.65625 -14.335938 8.65625 -13.078125 C 8.65625 -10.410156 9.1875 -8.367188 10.25 -6.953125 C 11.320312 -5.535156 12.785156 -4.828125 14.640625 -4.828125 C 15.285156 -4.828125 15.835938 -4.878906 16.296875 -4.984375 C 16.765625 -5.097656 17.171875 -5.238281 17.515625 -5.40625 C 17.859375 -5.582031 18.15625 -5.769531 18.40625 -5.96875 C 18.664062 -6.164062 18.90625 -6.347656 19.125 -6.515625 C 19.351562 -6.691406 19.582031 -6.832031 19.8125 -6.9375 C 20.039062 -7.050781 20.296875 -7.109375 20.578125 -7.109375 C 21.117188 -7.109375 21.539062 -6.90625 21.84375 -6.5 L 23.84375 -3.96875 C 23.101562 -3.113281 22.3125 -2.398438 21.46875 -1.828125 C 20.625 -1.265625 19.75 -0.816406 18.84375 -0.484375 C 17.945312 -0.160156 17.035156 0.0625 16.109375 0.1875 C 15.179688 0.3125 14.265625 0.375 13.359375 0.375 C 11.753906 0.375 10.234375 0.078125 8.796875 -0.515625 C 7.367188 -1.117188 6.113281 -1.992188 5.03125 -3.140625 C 3.945312 -4.285156 3.085938 -5.691406 2.453125 -7.359375 C 1.828125 -9.023438 1.515625 -10.929688 1.515625 -13.078125 C 1.515625 -14.984375 1.789062 -16.753906 2.34375 -18.390625 C 2.90625 -20.023438 3.722656 -21.4375 4.796875 -22.625 C 5.878906 -23.820312 7.21875 -24.765625 8.8125 -25.453125 C 10.40625 -26.140625 12.25 -26.484375 14.34375 -26.484375 C 16.332031 -26.484375 18.078125 -26.160156 19.578125 -25.515625 C 21.078125 -24.878906 22.425781 -23.953125 23.625 -22.734375 Z M 21.796875 -20.25 "/></g></g></g><g fill="#000000" fill-opacity="1"><g transform="translate(42.404554, 55.857482)"><g><path d="M 9.859375 -23.515625 C 10.347656 -23.953125 10.859375 -24.351562 11.390625 -24.71875 C 11.921875 -25.082031 12.484375 -25.394531 13.078125 -25.65625 C 13.679688 -25.914062 14.320312 -26.117188 15 -26.265625 C 15.6875 -26.410156 16.425781 -26.484375 17.21875 -26.484375 C 18.632812 -26.484375 19.890625 -26.238281 20.984375 -25.75 C 22.085938 -25.257812 23.015625 -24.570312 23.765625 -23.6875 C 24.515625 -22.8125 25.078125 -21.765625 25.453125 -20.546875 C 25.828125 -19.335938 26.015625 -18.007812 26.015625 -16.5625 L 26.015625 0 L 19.0625 0 L 19.0625 -16.5625 C 19.0625 -18.007812 18.722656 -19.132812 18.046875 -19.9375 C 17.378906 -20.738281 16.390625 -21.140625 15.078125 -21.140625 C 14.097656 -21.140625 13.175781 -20.925781 12.3125 -20.5 C 11.457031 -20.082031 10.640625 -19.492188 9.859375 -18.734375 L 9.859375 0 L 2.890625 0 L 2.890625 -37.703125 L 9.859375 -37.703125 Z M 9.859375 -23.515625 "/></g></g></g><g fill="#000000" fill-opacity="1"><g transform="translate(71.077128, 55.857482)"><g><path d="M 2.890625 0 L 2.890625 -26.078125 L 7.1875 -26.078125 C 8.0625 -26.078125 8.640625 -25.671875 8.921875 -24.859375 L 9.328125 -23.171875 C 9.785156 -23.640625 10.253906 -24.078125 10.734375 -24.484375 C 11.210938 -24.890625 11.726562 -25.238281 12.28125 -25.53125 C 12.84375 -25.820312 13.445312 -26.050781 14.09375 -26.21875 C 14.75 -26.394531 15.453125 -26.484375 16.203125 -26.484375 C 17.804688 -26.484375 19.128906 -26.054688 20.171875 -25.203125 C 21.222656 -24.347656 22.019531 -23.210938 22.5625 -21.796875 C 22.976562 -22.617188 23.492188 -23.328125 24.109375 -23.921875 C 24.722656 -24.523438 25.394531 -25.015625 26.125 -25.390625 C 26.863281 -25.765625 27.640625 -26.039062 28.453125 -26.21875 C 29.273438 -26.394531 30.097656 -26.484375 30.921875 -26.484375 C 32.390625 -26.484375 33.6875 -26.257812 34.8125 -25.8125 C 35.945312 -25.375 36.894531 -24.726562 37.65625 -23.875 C 38.425781 -23.03125 39.015625 -21.992188 39.421875 -20.765625 C 39.828125 -19.535156 40.03125 -18.132812 40.03125 -16.5625 L 40.03125 0 L 33.046875 0 L 33.046875 -16.5625 C 33.046875 -19.613281 31.742188 -21.140625 29.140625 -21.140625 C 28.546875 -21.140625 28 -21.039062 27.5 -20.84375 C 27 -20.65625 26.5625 -20.363281 26.1875 -19.96875 C 25.8125 -19.582031 25.515625 -19.101562 25.296875 -18.53125 C 25.085938 -17.957031 24.984375 -17.300781 24.984375 -16.5625 L 24.984375 0 L 18 0 L 18 -16.5625 C 18 -18.21875 17.675781 -19.394531 17.03125 -20.09375 C 16.382812 -20.789062 15.425781 -21.140625 14.15625 -21.140625 C 13.351562 -21.140625 12.59375 -20.945312 11.875 -20.5625 C 11.15625 -20.1875 10.484375 -19.660156 9.859375 -18.984375 L 9.859375 0 Z M 2.890625 0 "/></g></g></g><g fill="#000000" fill-opacity="1"><g transform="translate(113.732006, 55.857482)"><g><path d="M 16.515625 -10.90625 C 14.804688 -10.8125 13.390625 -10.660156 12.265625 -10.453125 C 11.140625 -10.242188 10.242188 -9.96875 9.578125 -9.625 C 8.910156 -9.289062 8.4375 -8.910156 8.15625 -8.484375 C 7.875 -8.054688 7.734375 -7.585938 7.734375 -7.078125 C 7.734375 -6.066406 8.015625 -5.347656 8.578125 -4.921875 C 9.148438 -4.503906 9.941406 -4.296875 10.953125 -4.296875 C 12.109375 -4.296875 13.113281 -4.5 13.96875 -4.90625 C 14.820312 -5.320312 15.671875 -5.972656 16.515625 -6.859375 Z M 2.296875 -22.453125 C 3.835938 -23.835938 5.535156 -24.867188 7.390625 -25.546875 C 9.242188 -26.234375 11.25 -26.578125 13.40625 -26.578125 C 14.957031 -26.578125 16.34375 -26.320312 17.5625 -25.8125 C 18.78125 -25.3125 19.816406 -24.609375 20.671875 -23.703125 C 21.523438 -22.804688 22.175781 -21.734375 22.625 -20.484375 C 23.082031 -19.234375 23.3125 -17.867188 23.3125 -16.390625 L 23.3125 0 L 20.125 0 C 19.46875 0 18.96875 -0.09375 18.625 -0.28125 C 18.28125 -0.46875 18 -0.851562 17.78125 -1.4375 L 17.21875 -3.109375 C 16.5625 -2.535156 15.925781 -2.03125 15.3125 -1.59375 C 14.695312 -1.15625 14.0625 -0.785156 13.40625 -0.484375 C 12.75 -0.191406 12.046875 0.0234375 11.296875 0.171875 C 10.546875 0.328125 9.707031 0.40625 8.78125 0.40625 C 7.632812 0.40625 6.585938 0.253906 5.640625 -0.046875 C 4.691406 -0.347656 3.875 -0.796875 3.1875 -1.390625 C 2.507812 -1.992188 1.984375 -2.742188 1.609375 -3.640625 C 1.242188 -4.535156 1.0625 -5.566406 1.0625 -6.734375 C 1.0625 -7.691406 1.304688 -8.648438 1.796875 -9.609375 C 2.285156 -10.566406 3.125 -11.4375 4.3125 -12.21875 C 5.5 -13.007812 7.082031 -13.660156 9.0625 -14.171875 C 11.039062 -14.691406 13.523438 -14.984375 16.515625 -15.046875 L 16.515625 -16.390625 C 16.515625 -18.023438 16.164062 -19.222656 15.46875 -19.984375 C 14.78125 -20.753906 13.789062 -21.140625 12.5 -21.140625 C 11.53125 -21.140625 10.722656 -21.023438 10.078125 -20.796875 C 9.441406 -20.566406 8.882812 -20.320312 8.40625 -20.0625 C 7.925781 -19.800781 7.472656 -19.554688 7.046875 -19.328125 C 6.628906 -19.097656 6.144531 -18.984375 5.59375 -18.984375 C 5.101562 -18.984375 4.691406 -19.101562 4.359375 -19.34375 C 4.035156 -19.59375 3.765625 -19.890625 3.546875 -20.234375 Z M 2.296875 -22.453125 "/></g></g></g><g fill="#5271ff" fill-opacity="1"><g transform="translate(149.086936, 61.789835)"><g><path d="M 4.734375 0.21875 C 4.296875 1.132812 3.660156 1.832031 2.828125 2.3125 C 2.003906 2.800781 1.21875 3.046875 0.46875 3.046875 L -2.734375 3.046875 L 19.34375 -43.03125 C 19.757812 -43.894531 20.328125 -44.550781 21.046875 -45 C 21.765625 -45.445312 22.578125 -45.671875 23.484375 -45.671875 L 26.625 -45.671875 Z M 4.734375 0.21875 "/></g></g></g><g fill="#5271ff" fill-opacity="1"><g transform="translate(174.51273, 61.789835)"><g><path d="M 30.015625 -19.59375 L 3.546875 -6.625 L 4.234375 -12.140625 C 4.273438 -12.566406 4.421875 -12.953125 4.671875 -13.296875 C 4.921875 -13.640625 5.3125 -13.9375 5.84375 -14.1875 L 17.953125 -20.03125 C 18.472656 -20.28125 19.007812 -20.492188 19.5625 -20.671875 C 20.125 -20.847656 20.707031 -21.007812 21.3125 -21.15625 C 20.75 -21.300781 20.207031 -21.460938 19.6875 -21.640625 C 19.175781 -21.816406 18.691406 -22.03125 18.234375 -22.28125 L 7.53125 -28.15625 C 7.113281 -28.382812 6.820312 -28.640625 6.65625 -28.921875 C 6.488281 -29.203125 6.40625 -29.523438 6.40625 -29.890625 C 6.40625 -29.910156 6.410156 -29.960938 6.421875 -30.046875 C 6.429688 -30.128906 6.457031 -30.359375 6.5 -30.734375 C 6.539062 -31.109375 6.613281 -31.679688 6.71875 -32.453125 C 6.820312 -33.234375 6.957031 -34.320312 7.125 -35.71875 L 30.390625 -22.734375 Z M 30.015625 -19.59375 "/></g></g></g></svg>