<svg xmlns="http://www.w3.org/2000/svg" xmlns:xlink="http://www.w3.org/1999/xlink" width="250" zoomAndPan="magnify" viewBox="0 0 187.5 74.999997" height="100" preserveAspectRatio="xMidYMid meet" version="1.0"><defs><clipPath id="id1"><path d="M 157.75 21.300781 L 185.664062 21.300781 L 185.664062 58 L 157.75 58 Z M 157.75 21.300781 " clip-rule="nonzero"/></clipPath><clipPath id="id2"><path d="M 136.167969 17.113281 L 156.617188 17.113281 L 156.617188 58.007812 L 136.167969 58.007812 Z M 136.167969 17.113281 " clip-rule="nonzero"/></clipPath><clipPath id="id3"><path d="M 185 28 L 187 28 L 187 52 L 185 52 Z M 185 28 " clip-rule="nonzero"/></clipPath></defs><g clip-path="url(#id1)"><path fill="rgb(32.159424%, 44.309998%, 100%)" d="M 162.132812 57.261719 L 188.859375 40.738281 C 189.828125 40.140625 189.816406 38.734375 188.84375 38.152344 L 162.121094 22.152344 C 160.789062 21.355469 159.058594 21.785156 158.261719 23.113281 C 157.457031 24.4375 157.886719 26.164062 159.222656 26.960938 L 179.765625 39.261719 C 179.953125 39.371094 179.957031 39.644531 179.773438 39.757812 L 159.167969 52.496094 C 157.84375 53.3125 157.4375 55.042969 158.257812 56.355469 C 159.078125 57.671875 160.8125 58.074219 162.132812 57.261719 " fill-opacity="1" fill-rule="nonzero"/></g><g clip-path="url(#id2)"><path fill="rgb(32.159424%, 44.309998%, 100%)" d="M 138.253906 66.101562 C 136.765625 65.648438 135.921875 64.085938 136.378906 62.605469 L 150.824219 15.199219 C 151.273438 13.722656 152.847656 12.882812 154.332031 13.332031 C 155.820312 13.785156 156.65625 15.347656 156.207031 16.832031 L 141.761719 64.234375 C 141.3125 65.714844 139.738281 66.554688 138.253906 66.101562 " fill-opacity="1" fill-rule="nonzero"/></g><path fill="rgb(100%, 100%, 100%)" d="M 100.96875 21.859375 L 136.75 21.859375 L 136.75 57.640625 L 100.96875 57.640625 L 100.96875 21.859375 " fill-opacity="1" fill-rule="nonzero"/><path fill="rgb(100%, 100%, 100%)" d="M 153.101562 46.542969 L 161.625 46.542969 L 161.625 69.121094 L 153.101562 69.121094 L 153.101562 46.542969 " fill-opacity="1" fill-rule="nonzero"/><path fill="rgb(0%, 0%, 0%)" d="M 16.4375 57.257812 C 14.601562 57.257812 12.886719 56.902344 11.289062 56.191406 C 9.691406 55.476562 8.292969 54.496094 7.097656 53.246094 C 5.910156 52 4.964844 50.53125 4.269531 48.84375 C 3.570312 47.152344 3.222656 45.351562 3.222656 43.449219 C 3.222656 41.539062 3.570312 39.738281 4.269531 38.050781 C 4.964844 36.367188 5.910156 34.898438 7.097656 33.648438 C 8.292969 32.402344 9.691406 31.417969 11.289062 30.703125 C 12.886719 29.988281 14.601562 29.628906 16.4375 29.628906 C 18.558594 29.628906 20.519531 30.109375 22.320312 31.066406 C 24.117188 32.019531 25.625 33.320312 26.835938 34.972656 L 23.09375 37.882812 C 22.359375 36.816406 21.433594 35.984375 20.3125 35.378906 C 19.195312 34.777344 17.992188 34.476562 16.710938 34.476562 C 15.609375 34.476562 14.5625 34.707031 13.570312 35.167969 C 12.578125 35.625 11.71875 36.257812 10.988281 37.066406 C 10.253906 37.871094 9.671875 38.824219 9.246094 39.925781 C 8.824219 41.023438 8.617188 42.199219 8.617188 43.449219 C 8.617188 44.695312 8.824219 45.871094 9.246094 46.972656 C 9.671875 48.070312 10.253906 49.035156 10.988281 49.863281 C 11.71875 50.6875 12.578125 51.335938 13.570312 51.816406 C 14.5625 52.292969 15.609375 52.527344 16.710938 52.527344 C 18.140625 52.527344 19.445312 52.144531 20.617188 51.371094 C 21.792969 50.605469 22.746094 49.574219 23.480469 48.285156 L 27.113281 51.480469 C 25.933594 53.242188 24.410156 54.648438 22.542969 55.695312 C 20.671875 56.734375 18.636719 57.257812 16.4375 57.257812 Z M 16.4375 57.257812 " fill-opacity="1" fill-rule="nonzero"/><path fill="rgb(0%, 0%, 0%)" d="M 37.621094 56.601562 L 32.277344 56.601562 L 32.277344 16.421875 L 37.621094 16.421875 L 37.621094 32.65625 C 38.609375 31.554688 39.644531 30.777344 40.726562 30.320312 C 41.8125 29.859375 43.066406 29.628906 44.5 29.628906 C 46.332031 29.628906 47.972656 29.988281 49.425781 30.703125 C 50.875 31.417969 52.113281 32.402344 53.144531 33.648438 C 54.171875 34.898438 54.949219 36.367188 55.476562 38.050781 C 56.011719 39.738281 56.277344 41.539062 56.277344 43.449219 L 56.277344 56.601562 L 50.890625 56.601562 L 50.890625 43.449219 C 50.890625 42.199219 50.714844 41.023438 50.367188 39.925781 C 50.015625 38.824219 49.535156 37.871094 48.929688 37.066406 C 48.324219 36.257812 47.625 35.625 46.832031 35.167969 C 46.046875 34.707031 45.195312 34.476562 44.277344 34.476562 C 43.507812 34.476562 42.738281 34.632812 41.96875 34.945312 C 41.199219 35.253906 40.492188 35.757812 39.847656 36.453125 C 39.210938 37.152344 38.675781 38.070312 38.25 39.207031 C 37.832031 40.339844 37.621094 41.71875 37.621094 43.332031 Z M 37.621094 56.601562 " fill-opacity="1" fill-rule="nonzero"/><path fill="rgb(0%, 0%, 0%)" d="M 67.449219 56.601562 L 62.109375 56.601562 L 62.109375 30.234375 L 66.351562 30.234375 L 67.449219 32.496094 C 68.113281 31.722656 68.902344 31.050781 69.820312 30.480469 C 70.738281 29.914062 71.855469 29.628906 73.175781 29.628906 C 73.691406 29.628906 74.265625 29.695312 74.90625 29.824219 C 75.550781 29.949219 76.210938 30.167969 76.886719 30.480469 C 77.5625 30.796875 78.214844 31.21875 78.835938 31.75 C 79.464844 32.28125 80 32.96875 80.445312 33.808594 C 81.066406 32.671875 82.007812 31.695312 83.273438 30.871094 C 84.539062 30.042969 85.886719 29.628906 87.320312 29.628906 C 88.273438 29.628906 89.28125 29.777344 90.347656 30.074219 C 91.414062 30.363281 92.402344 30.914062 93.320312 31.722656 C 94.238281 32.527344 94.988281 33.648438 95.574219 35.078125 C 96.160156 36.511719 96.453125 38.363281 96.453125 40.632812 L 96.453125 56.601562 L 91.449219 56.601562 L 91.449219 40.582031 C 91.449219 38.308594 90.980469 36.726562 90.046875 35.824219 C 89.109375 34.925781 87.871094 34.476562 86.328125 34.476562 C 85.15625 34.476562 84.128906 34.972656 83.25 35.964844 C 82.363281 36.957031 81.925781 38.511719 81.925781 40.632812 L 81.925781 56.601562 L 76.921875 56.601562 L 76.921875 40.582031 C 76.921875 38.308594 76.449219 36.726562 75.507812 35.824219 C 74.574219 34.925781 73.335938 34.476562 71.800781 34.476562 C 70.699219 34.476562 69.734375 34.898438 68.90625 35.742188 C 68.082031 36.585938 67.597656 37.90625 67.449219 39.703125 Z M 67.449219 56.601562 " fill-opacity="1" fill-rule="nonzero"/><path fill="rgb(0%, 0%, 0%)" d="M 127.714844 30.234375 L 127.714844 56.601562 L 123.199219 56.601562 L 122.375 53.574219 C 121.453125 54.789062 120.28125 55.703125 118.851562 56.324219 C 117.421875 56.945312 115.976562 57.257812 114.511719 57.257812 C 112.667969 57.257812 110.949219 56.902344 109.351562 56.191406 C 107.761719 55.476562 106.367188 54.496094 105.171875 53.246094 C 103.984375 52 103.039062 50.53125 102.34375 48.84375 C 101.644531 47.152344 101.296875 45.351562 101.296875 43.449219 C 101.296875 41.539062 101.644531 39.738281 102.34375 38.050781 C 103.039062 36.367188 103.984375 34.898438 105.171875 33.648438 C 106.367188 32.402344 107.761719 31.417969 109.351562 30.703125 C 110.949219 29.988281 112.667969 29.628906 114.511719 29.628906 C 115.976562 29.628906 117.386719 29.914062 118.742188 30.480469 C 120.101562 31.050781 121.3125 31.941406 122.375 33.152344 L 123.199219 30.234375 Z M 114.511719 52.527344 C 115.566406 52.527344 116.574219 52.292969 117.527344 51.816406 C 118.484375 51.335938 119.3125 50.6875 120.011719 49.863281 C 120.710938 49.035156 121.257812 48.070312 121.664062 46.972656 C 122.066406 45.871094 122.265625 44.695312 122.265625 43.449219 C 122.265625 42.199219 122.066406 41.023438 121.664062 39.925781 C 121.257812 38.824219 120.710938 37.863281 120.011719 37.039062 C 119.3125 36.210938 118.484375 35.558594 117.527344 35.078125 C 116.574219 34.597656 115.566406 34.359375 114.511719 34.359375 C 113.445312 34.359375 112.433594 34.597656 111.476562 35.078125 C 110.519531 35.558594 109.695312 36.210938 109 37.039062 C 108.304688 37.863281 107.757812 38.824219 107.347656 39.925781 C 106.945312 41.023438 106.746094 42.199219 106.746094 43.449219 C 106.746094 44.695312 106.945312 45.871094 107.347656 46.972656 C 107.757812 48.070312 108.304688 49.035156 109 49.863281 C 109.695312 50.6875 110.519531 51.335938 111.476562 51.816406 C 112.433594 52.292969 113.445312 52.527344 114.511719 52.527344 Z M 114.511719 52.527344 " fill-opacity="1" fill-rule="nonzero"/><path fill="rgb(100%, 100%, 100%)" d="M 132.011719 66.492188 L 132.011719 57.972656 L 151.183594 57.972656 L 151.183594 66.492188 L 132.011719 66.492188 " fill-opacity="1" fill-rule="nonzero"/><path fill="rgb(100%, 100%, 100%)" d="M 143.4375 16.4375 L 143.4375 7.917969 L 162.609375 7.917969 L 162.609375 16.4375 L 143.4375 16.4375 " fill-opacity="1" fill-rule="nonzero"/><path fill="rgb(100%, 100%, 100%)" d="M 157.464844 14.578125 L 161.722656 14.578125 L 161.722656 37.152344 L 157.464844 37.152344 L 157.464844 14.578125 " fill-opacity="1" fill-rule="nonzero"/><g clip-path="url(#id3)"><path fill="rgb(100%, 100%, 100%)" d="M 185.84375 28.585938 L 194.363281 28.585938 L 194.363281 51.164062 L 185.84375 51.164062 L 185.84375 28.585938 " fill-opacity="1" fill-rule="nonzero"/></g></svg>