<svg xmlns="http://www.w3.org/2000/svg" xmlns:xlink="http://www.w3.org/1999/xlink" width="48" zoomAndPan="magnify" viewBox="0 0 36 36.000001" height="48" preserveAspectRatio="xMidYMid meet" version="1.0"><defs><g/><clipPath id="4518bb085e"><path d="M 0.488281 0 L 35.511719 0 L 35.511719 35 L 0.488281 35 Z M 0.488281 0 " clip-rule="nonzero"/></clipPath><clipPath id="8ce5555913"><path d="M 7.785156 0 L 28.214844 0 C 30.152344 0 32.007812 0.769531 33.375 2.136719 C 34.746094 3.503906 35.511719 5.363281 35.511719 7.296875 L 35.511719 27.730469 C 35.511719 29.664062 34.746094 31.519531 33.375 32.890625 C 32.007812 34.257812 30.152344 35.027344 28.214844 35.027344 L 7.785156 35.027344 C 5.847656 35.027344 3.992188 34.257812 2.625 32.890625 C 1.253906 31.519531 0.488281 29.664062 0.488281 27.730469 L 0.488281 7.296875 C 0.488281 5.363281 1.253906 3.503906 2.625 2.136719 C 3.992188 0.769531 5.847656 0 7.785156 0 " clip-rule="nonzero"/></clipPath></defs><g clip-path="url(#4518bb085e)"><g clip-path="url(#8ce5555913)"><path fill="#ffffff" d="M 0.488281 0 L 35.457031 0 L 35.457031 34.972656 L 0.488281 34.972656 Z M 0.488281 0 " fill-opacity="1" fill-rule="nonzero"/></g></g><g fill="#5271ff" fill-opacity="1"><g transform="translate(3.956764, 28.688035)"><g><path d="M 2.546875 0.125 C 2.304688 0.613281 1.960938 0.984375 1.515625 1.234375 C 1.078125 1.492188 0.65625 1.625 0.25 1.625 L -1.46875 1.625 L 10.359375 -23.0625 C 10.585938 -23.519531 10.894531 -23.867188 11.28125 -24.109375 C 11.664062 -24.347656 12.097656 -24.46875 12.578125 -24.46875 L 14.265625 -24.46875 Z M 2.546875 0.125 "/></g></g></g><g fill="#5271ff" fill-opacity="1"><g transform="translate(17.582674, 28.688035)"><g><path d="M 16.078125 -10.5 L 1.90625 -3.546875 L 2.265625 -6.515625 C 2.285156 -6.734375 2.363281 -6.9375 2.5 -7.125 C 2.632812 -7.3125 2.84375 -7.472656 3.125 -7.609375 L 9.625 -10.734375 C 9.90625 -10.867188 10.191406 -10.984375 10.484375 -11.078125 C 10.785156 -11.171875 11.097656 -11.257812 11.421875 -11.34375 C 11.117188 -11.414062 10.828125 -11.5 10.546875 -11.59375 C 10.273438 -11.6875 10.015625 -11.800781 9.765625 -11.9375 L 4.03125 -15.09375 C 3.8125 -15.207031 3.65625 -15.34375 3.5625 -15.5 C 3.476562 -15.65625 3.4375 -15.828125 3.4375 -16.015625 C 3.4375 -16.023438 3.4375 -16.050781 3.4375 -16.09375 C 3.445312 -16.144531 3.460938 -16.269531 3.484375 -16.46875 C 3.503906 -16.664062 3.539062 -16.972656 3.59375 -17.390625 C 3.65625 -17.804688 3.726562 -18.390625 3.8125 -19.140625 L 16.28125 -12.171875 Z M 16.078125 -10.5 "/></g></g></g></svg>